<?xml version="1.0" encoding="UTF-8"?>
<svg version="1.1" xmlns="http://www.w3.org/2000/svg" width="865" height="885">
<path d="M0 0 C2.9465222 2.9465222 2.59378912 6.29107163 2.89453125 10.265625 C3.04346908 12.01921854 3.19256482 13.77279867 3.34179688 15.52636719 C3.45575806 16.92211975 3.45575806 16.92211975 3.57202148 18.34606934 C3.98278895 23.30634714 4.43855519 28.26245371 4.89453125 33.21875 C4.98727325 34.22701843 5.08001526 35.23528687 5.17556763 36.27410889 C7.65585516 62.9811962 11.98684497 89.22525304 17 115.5625 C17.12930908 116.24346237 17.25861816 116.92442474 17.3918457 117.62602234 C19.95160802 131.09471501 22.55385364 144.55334354 25.6875 157.90234375 C25.87771729 158.72013809 26.06793457 159.53793243 26.26391602 160.38050842 C27.486538 165.43104929 29.1186617 170.15640556 31 175 C31.48610382 176.50109338 31.95536512 178.00794703 32.39453125 179.5234375 C32.62430664 180.30686523 32.85408203 181.09029297 33.09082031 181.89746094 C33.44805176 183.12384277 33.44805176 183.12384277 33.8125 184.375 C41.74069304 211.02826854 51.15603143 237.3235343 66 261 C66.78415091 262.26153435 67.56797899 263.52326939 68.3515625 264.78515625 C70.08101049 267.5668368 71.82043775 270.34194416 73.56640625 273.11328125 C74.99822963 275.38845466 76.40022342 277.6711439 77.77734375 279.98046875 C82.66527329 288.07124699 88.70943397 294.98677805 95 302 C95.52352051 302.58668457 96.04704102 303.17336914 96.58642578 303.77783203 C101.97385651 309.79376848 107.35582232 315.6596541 113.671875 320.73046875 C114.32929687 321.35888672 114.32929687 321.35888672 115 322 C115 322.66 115 323.32 115 324 C115.87615967 324.41209717 115.87615967 324.41209717 116.77001953 324.83251953 C118.92932171 325.9629972 120.74546129 327.20237315 122.6796875 328.6796875 C123.36160156 329.19660156 124.04351563 329.71351563 124.74609375 330.24609375 C125.44863281 330.78363281 126.15117188 331.32117188 126.875 331.875 C128.26703729 332.93646072 129.66024822 333.99638424 131.0546875 335.0546875 C131.71952148 335.55967773 132.38435547 336.06466797 133.06933594 336.58496094 C134.8438741 337.88557085 136.65005715 339.0807614 138.5078125 340.2578125 C139.33023437 340.83273437 140.15265625 341.40765625 141 342 C141 342.66 141 343.32 141 344 C141.69673828 344.26425781 142.39347656 344.52851563 143.11132812 344.80078125 C146.24989745 346.10374377 149.20980988 347.60803234 152.21875 349.1875 C153.08929016 349.64225708 153.08929016 349.64225708 153.97741699 350.10620117 C156.44074676 351.39310175 158.90114136 352.68557173 161.36181641 353.97753906 C163.16728573 354.92446687 164.97422824 355.86853902 166.78125 356.8125 C167.85439453 357.37582031 168.92753906 357.93914062 170.03320312 358.51953125 C172.65313745 359.82691125 175.2640715 360.96232129 178 362 C178 362.66 178 363.32 178 364 C179.89878906 364.38865234 179.89878906 364.38865234 181.8359375 364.78515625 C188.13823377 366.18525607 194.19348995 368.27279038 200.30078125 370.34570312 C206.82537722 372.49109452 213.34510626 373.96176954 220.08984375 375.24731445 C223.95315545 375.99098266 227.793458 376.80772421 231.63671875 377.6484375 C258.71910033 383.5130359 285.95733626 387.35872246 313.52490234 390.10058594 C314.58918457 390.20661133 315.6534668 390.31263672 316.75 390.421875 C318.13445312 390.55480957 318.13445312 390.55480957 319.546875 390.69042969 C321.76962316 390.97092776 323.84376998 391.40174693 326 392 C326 392.66 326 393.32 326 394 C324.19595703 393.94779297 324.19595703 393.94779297 322.35546875 393.89453125 C300.63458398 393.46293304 279.55325107 396.54403343 258.25 400.4375 C257.45111359 400.5825296 256.65222717 400.7275592 255.82913208 400.87698364 C245.39323329 402.78725962 235.22525016 405.15667735 225 408 C222.50106875 408.65901394 220.00105588 409.31393957 217.5 409.96484375 C199.5990662 414.65893941 182.4997509 419.32183149 166.03808594 427.94726562 C163.97915218 429.01076854 161.90472381 430.03430783 159.8203125 431.046875 C149.84095964 435.90058655 140.17624092 440.91925398 131.875 448.40234375 C129.51361646 450.4144393 127.02218106 452.19403612 124.5 454 C117.93249174 458.73721907 112.35187624 463.47148542 107.1015625 469.6328125 C104.39137472 472.6855519 101.55835714 475.59882443 98.6875 478.5 C98.15938721 479.04092285 97.63127441 479.5818457 97.0871582 480.13916016 C95.76377138 481.46617738 94.38578489 482.73828386 93 484 C92.34 484 91.68 484 91 484 C90.74605469 484.73605469 90.49210937 485.47210937 90.23046875 486.23046875 C88.91987373 489.18034769 87.47442598 490.92820449 85.3125 493.3125 C80.33396506 499.23160506 76.27529088 505.62949638 72.1875 512.1875 C71.54143799 513.22108643 70.89537598 514.25467285 70.22973633 515.31958008 C67.23514662 520.17013667 64.41226769 525.00404727 61.95019531 530.14477539 C60.93415449 532.12856116 59.78081379 533.95971525 58.56640625 535.828125 C49.34478529 550.32677725 43.94798788 567.40443591 38.5625 583.625 C38.31160614 584.37841675 38.06071228 585.1318335 37.80221558 585.90808105 C34.88328787 594.71853374 32.22819528 603.54425404 29.97241211 612.54833984 C29.24913356 615.11567906 28.45957387 617.4723462 27.49291992 619.94360352 C26.00260283 623.82415379 25.05749978 627.73958999 24.2734375 631.81640625 C24.12458603 632.564561 23.97573456 633.31271576 23.82237244 634.08354187 C23.3308328 636.57485311 22.85167902 639.06830478 22.375 641.5625 C22.20592133 642.43958618 22.03684265 643.31667236 21.86264038 644.22033691 C13.82452096 686.05866689 7.3901335 728.01359519 3.49951172 770.44335938 C3.33175438 772.19661924 3.16395001 773.9498746 2.99609375 775.703125 C2.92536148 776.52310974 2.85462921 777.34309448 2.78175354 778.18792725 C2.59195952 780.13349578 2.30542981 782.06920448 2 784 C1.34 784.33 0.68 784.66 0 785 C-1.06539339 778.46621578 -1.48154158 771.91282116 -1.9375 765.3125 C-2.20564299 761.65454212 -2.47807081 757.9969243 -2.75146484 754.33935547 C-2.90076014 752.33340154 -3.04769332 750.32726676 -3.18994141 748.32080078 C-4.09144476 735.94608004 -6.18608366 723.85075785 -8.4777832 711.66723633 C-10.47168052 701.05072397 -12.2688643 690.41188508 -13.99960327 679.74951172 C-21.79816023 626.62318378 -21.79816023 626.62318378 -39.1875 576.1875 C-41.20658777 571.86604947 -43.01148155 567.49624268 -44.74902344 563.05688477 C-52.1734598 544.09197697 -60.32131117 523.84205769 -73.3984375 507.98828125 C-75.01659253 505.97940098 -76.41473764 503.91692209 -77.8125 501.75 C-85.99900073 489.25135851 -95.50120336 478.03065191 -106.64453125 468.1015625 C-108.13259119 466.77390703 -109.58985968 465.41014032 -111 464 C-174.36 495.68 -237.72 527.36 -303 560 C-303 556.15894016 -301.78627474 554.84398623 -299.625 551.6875 C-298.89023437 550.61371094 -298.15546875 549.53992188 -297.3984375 548.43359375 C-296.60034627 547.28809425 -295.80085496 546.143569 -295 545 C-294.61489258 544.44844238 -294.22978516 543.89688477 -293.83300781 543.32861328 C-282.22453034 526.759621 -269.97599472 510.90649022 -256.53515625 495.78125 C-254.91661222 493.9786294 -254.91661222 493.9786294 -253.47680664 491.70239258 C-250.0836513 488.00019086 -246.29629732 486.20409493 -241.8359375 483.98046875 C-240.85233246 483.47871628 -239.86872742 482.97696381 -238.85531616 482.46000671 C-235.92486711 480.97110268 -232.988567 479.49503179 -230.04862976 478.02501678 C-227.86117336 476.93053911 -225.67539045 475.83277054 -223.48986816 474.73443604 C-211.21467196 468.56751111 -198.92113881 462.43753176 -186.625 456.3125 C-180.20694405 453.11531294 -173.78957705 449.91675698 -167.37385178 446.71489525 C-164.82358551 445.44299894 -162.27212917 444.17351275 -159.72061157 442.90412903 C-158.17777804 442.13452596 -156.63499941 441.36481283 -155.09228516 440.5949707 C-154.38395538 440.24338898 -153.67562561 439.89180725 -152.9458313 439.52957153 C-149.76206362 438.07768725 -149.76206362 438.07768725 -147 436 C-147.65484375 435.68772461 -148.3096875 435.37544922 -148.984375 435.05371094 C-151.98994981 433.61990742 -154.99497806 432.18496187 -158 430.75 C-159.02996094 430.25886719 -160.05992187 429.76773437 -161.12109375 429.26171875 C-165.50255561 427.16866372 -169.87461997 425.0750664 -174.1875 422.84375 C-178.33621606 420.76300277 -182.59938678 419.21162131 -187 417.75 C-188.31907349 417.31046997 -188.31907349 417.31046997 -189.66479492 416.86206055 C-201.31477474 413.10390691 -213.2337868 410.28056646 -225.13072205 407.425354 C-228.39998465 406.6397052 -231.66159315 405.83421087 -234.91430664 404.98242188 C-244.80645455 402.40436279 -254.72314908 400.50428309 -264.8125 398.875 C-265.99563278 398.68173126 -265.99563278 398.68173126 -267.20266724 398.48455811 C-285.96435902 395.42670348 -303.96176077 393.65901661 -323 394 C-323.33 393.34 -323.66 392.68 -324 392 C-315.90762706 390.13596699 -307.82309181 389.30690011 -299.5625 388.5625 C-288.73711578 387.5462813 -278.01755394 386.25529036 -267.30517578 384.38549805 C-264.54821271 383.92444692 -261.78453453 383.51944086 -259.01953125 383.109375 C-251.05433257 381.88931387 -243.15168767 380.38406949 -235.25 378.8125 C-234.48875824 378.66137756 -233.72751648 378.51025513 -232.94320679 378.35455322 C-219.97081557 375.7603799 -207.24194064 372.62014769 -194.57714844 368.77587891 C-192.21724892 368.06540518 -189.85075272 367.39126554 -187.4765625 366.73046875 C-174.4283913 363.01672294 -154.83040537 355.83040537 -145 346 C-145.60830815 345.70183758 -146.21661631 345.40367516 -146.84335804 345.09647751 C-161.70005897 337.81218872 -176.54191032 330.49855991 -191.3682375 323.15266037 C-198.53875104 319.60080351 -205.71379121 316.05875254 -212.90063477 312.54003906 C-219.17067888 309.47016365 -225.43111009 306.38160795 -231.68107194 303.27103925 C-234.98541885 301.62727973 -238.29358576 299.99271966 -241.61345863 298.38051605 C-267.81167596 285.64376428 -267.81167596 285.64376428 -276 274 C-276.98925051 272.80549735 -277.98425045 271.61570005 -278.98828125 270.43359375 C-281.67634656 266.96847426 -284.35465888 263.49786011 -287 260 C-287.56686523 259.25234375 -288.13373047 258.5046875 -288.71777344 257.734375 C-307.87197695 232.37499685 -307.87197695 232.37499685 -312 221 C-311.5769043 218.78808594 -311.5769043 218.78808594 -311 217 C-306.14634448 219.41426954 -301.2941314 221.83140811 -296.44311523 224.25097656 C-294.79993399 225.07008552 -293.15639153 225.88847033 -291.51245117 226.70605469 C-282.59736827 231.14044362 -273.73039672 235.63626494 -264.96366882 240.3578186 C-261.27030028 242.34122672 -257.56101675 244.23747691 -253.74349499 245.96955681 C-247.25597054 248.91618315 -240.90933055 252.05549265 -234.62768555 255.41748047 C-222.87026468 261.65292266 -210.96209221 267.58379638 -199.05359864 273.52389765 C-195.90858575 275.09322114 -192.76474946 276.66489845 -189.62077332 278.23629761 C-183.70066316 281.19481513 -177.779539 284.15129702 -171.85802239 287.10699832 C-165.10236625 290.47918554 -158.34788232 293.85371757 -151.59348261 297.2284205 C-137.73026604 304.15483998 -123.86562337 311.0783997 -110 318 C-108.71714955 317.04644196 -107.4354745 316.09130248 -106.15429688 315.13549805 C-105.44043823 314.60377487 -104.72657959 314.0720517 -103.99108887 313.5242157 C-97.17814475 308.30877979 -91.93901675 301.87107056 -87.03515625 294.890625 C-84.89827375 291.85551357 -82.67910401 288.89596214 -80.4375 285.9375 C-61.99408747 261.37797301 -49.67824561 234.71954771 -38.82446289 206.11767578 C-38.25711988 204.66042577 -37.66909588 203.21111354 -37.06420898 201.76904297 C-34.29324424 195.12716777 -32.18815537 188.36618855 -30.23754883 181.44140625 C-29.71081273 179.58228264 -29.1653984 177.72848158 -28.61914062 175.875 C-20.66060259 148.22465459 -16.41769281 119.55552101 -12.25391006 91.14123917 C-11.86905561 88.52204438 -11.48030745 85.90345423 -11.09042358 83.28500366 C-7.37620023 58.3242551 -3.91808246 33.35769741 -1.38208008 8.24536133 C-1.05288705 5.44921886 -0.60360358 2.74801045 0 0 Z " fill="#3D348B" transform="translate(424,52)"/>
<path d="M0 0 C9.61545581 4.45778131 19.15207742 9.00165513 28.5 14 C34.83959642 17.38968187 41.23424222 20.58755438 47.75 23.625 C54.64299988 26.83902161 61.36598921 30.25880781 68.04872131 33.88775635 C71.59732203 35.79739487 75.18275976 37.62032099 78.79101562 39.4152832 C79.4639138 39.75053418 80.13681198 40.08578516 80.83010101 40.43119526 C82.36148035 41.1941039 83.89310418 41.95652191 85.42492676 42.71854019 C89.29275574 44.64332715 93.15856765 46.57215419 97.02462006 48.5005064 C100.44744062 50.20771675 103.87050465 51.9144383 107.2935791 53.62113953 C116.28823144 58.10610157 125.2808042 62.5952296 134.27317047 67.08477306 C141.08598382 70.48600832 147.8995567 73.88570624 154.71484375 77.28198242 C160.70813677 80.26863918 166.70000166 83.25813895 172.69019461 86.25100881 C175.84592825 87.8275797 179.00233481 89.40276627 182.16047668 90.97450829 C185.67494164 92.72364454 189.18621816 94.47912049 192.69726562 96.23510742 C193.72805237 96.74690552 194.75883911 97.25870361 195.82086182 97.78601074 C200.79406893 100.27970671 205.5761319 102.89127729 210.25540543 105.90045834 C212.70218058 107.44255371 215.24182869 108.74810906 217.82666016 110.04272461 C218.90203033 110.58356186 219.97740051 111.12439911 221.08535767 111.68162537 C222.22508026 112.24946243 223.36480286 112.8172995 224.5390625 113.40234375 C225.74973993 114.00835838 226.96029868 114.61461017 228.17074585 115.22108459 C230.69929172 116.48682389 233.22924443 117.74969263 235.76025391 119.01049805 C238.96298948 120.60620122 242.16211219 122.20899491 245.36017799 123.81403255 C247.85898559 125.06709827 250.35973407 126.31625165 252.86103439 127.56433296 C254.60208262 128.4338883 256.34155308 129.30660048 258.08096313 130.1794281 C268.19486026 135.20724286 278.45247032 139.74456237 289.0625 143.625 C297.37106918 146.67448163 305.51284701 150.10839001 313.67327881 153.53027344 C324.24225708 157.95319672 334.90630776 162.02518934 345.6965332 165.87792969 C346.75960693 166.26110352 347.82268066 166.64427734 348.91796875 167.0390625 C350.32212036 167.53720459 350.32212036 167.53720459 351.75463867 168.04541016 C354 169 354 169 356 171 C356.4375 173.4375 356.4375 173.4375 356 176 C352.04781932 178.85348111 347.57188286 180.43552341 343.03515625 182.1171875 C341.42828938 182.72378539 339.82152271 183.33064873 338.21484375 183.93774414 C336.95389893 184.41148972 336.95389893 184.41148972 335.66748047 184.89480591 C319.79291988 190.86803706 304.15898267 197.22085226 288.65625 204.09765625 C284.15541539 206.09144469 279.62286908 207.94013877 275.03295898 209.71826172 C267.07432564 212.86168346 259.45376561 216.56261144 251.81640625 220.41015625 C250.42231893 221.10746032 249.02802208 221.80434563 247.63352966 222.50083923 C244.74181561 223.94674062 241.85217537 225.39667578 238.96411133 226.84985352 C235.28403865 228.70129578 231.59954614 230.54373466 227.91355991 232.3833704 C225.04568377 233.81563031 222.17982865 235.25189568 219.31458855 236.6894207 C217.9568952 237.37017437 216.59867786 238.04988416 215.23990059 238.72847176 C213.33964971 239.67840955 211.44210481 240.63355672 209.54516602 241.59008789 C207.93424828 242.3990023 207.93424828 242.3990023 206.29078674 243.22425842 C203.8684432 244.53137933 201.60346107 245.86945 199.29578304 247.35273933 C195.29887672 249.86248475 191.2024424 252.03660716 186.97668457 254.13191223 C185.82712036 254.70797597 185.82712036 254.70797597 184.65433264 255.29567736 C182.11062833 256.56916396 179.5641264 257.83694754 177.01757812 259.10473633 C175.18373717 260.02137447 173.35007273 260.9383658 171.51657104 261.85568237 C166.55617773 264.33616519 161.59333858 266.8117174 156.63003731 269.28637528 C151.43694145 271.87665941 146.24612036 274.47149403 141.05505371 277.06584167 C131.23253221 281.97399802 121.40797908 286.87807323 111.58268499 291.78067654 C100.39370604 297.36397719 89.20700637 302.95183729 78.02049351 308.54007685 C55.01619051 320.03178415 32.00903867 331.5177779 9 343 C9 339.15894016 10.21372526 337.84398623 12.375 334.6875 C13.10976562 333.61371094 13.84453125 332.53992188 14.6015625 331.43359375 C15.39965373 330.28809425 16.19914504 329.143569 17 328 C17.38510742 327.44844238 17.77021484 326.89688477 18.16699219 326.32861328 C29.77546966 309.759621 42.02400528 293.90649022 55.46484375 278.78125 C57.08338778 276.9786294 57.08338778 276.9786294 58.52319336 274.70239258 C61.9163487 271.00019086 65.70370268 269.20409493 70.1640625 266.98046875 C71.14766754 266.47871628 72.13127258 265.97696381 73.14468384 265.46000671 C76.07513289 263.97110268 79.011433 262.49503179 81.95137024 261.02501678 C84.13882664 259.93053911 86.32460955 258.83277054 88.51013184 257.73443604 C100.78532804 251.56751111 113.07886119 245.43753176 125.375 239.3125 C131.79305595 236.11531294 138.21042295 232.91675698 144.62614822 229.71489525 C147.17641449 228.44299894 149.72787083 227.17351275 152.27938843 225.90412903 C153.82222196 225.13452596 155.36500059 224.36481283 156.90771484 223.5949707 C157.9702095 223.06759811 157.9702095 223.06759811 159.0541687 222.52957153 C162.23793638 221.07768725 162.23793638 221.07768725 165 219 C164.34515625 218.68772461 163.6903125 218.37544922 163.015625 218.05371094 C160.01005019 216.61990742 157.00502194 215.18496187 154 213.75 C152.97003906 213.25886719 151.94007813 212.76773438 150.87890625 212.26171875 C146.49744439 210.16866372 142.12538003 208.0750664 137.8125 205.84375 C133.66378394 203.76300277 129.40061322 202.21162131 125 200.75 C124.12061768 200.45697998 123.24123535 200.16395996 122.33520508 199.86206055 C110.68522526 196.10390691 98.7662132 193.28056646 86.86927795 190.425354 C83.60001535 189.6397052 80.33840685 188.83421087 77.08569336 187.98242188 C67.19354545 185.40436279 57.27685092 183.50428309 47.1875 181.875 C46.39874481 181.74615417 45.60998962 181.61730835 44.79733276 181.48455811 C26.03564098 178.42670348 8.03823923 176.65901661 -11 177 C-11.33 176.34 -11.66 175.68 -12 175 C-3.90762706 173.13596699 4.17690819 172.30690011 12.4375 171.5625 C23.26288422 170.5462813 33.98244606 169.25529036 44.69482422 167.38549805 C47.45178729 166.92444692 50.21546547 166.51944086 52.98046875 166.109375 C60.94566743 164.88931387 68.84831233 163.38406949 76.75 161.8125 C77.51124176 161.66137756 78.27248352 161.51025513 79.05679321 161.35455322 C92.02918443 158.7603799 104.75805936 155.62014769 117.42285156 151.77587891 C119.78275108 151.06540518 122.14924728 150.39126554 124.5234375 149.73046875 C137.5716087 146.01672294 157.16959463 138.83040537 167 129 C166.39169185 128.70183758 165.78338369 128.40367516 165.15664196 128.09647751 C150.29994103 120.81218872 135.45808968 113.49855991 120.6317625 106.15266037 C113.46124896 102.60080351 106.28620879 99.05875254 99.09936523 95.54003906 C92.82932112 92.47016365 86.56888991 89.38160795 80.31892806 86.27103925 C77.01458115 84.62727973 73.70641424 82.99271966 70.38654137 81.38051605 C44.18832404 68.64376428 44.18832404 68.64376428 36 57 C35.01074949 55.80549735 34.01574955 54.61570005 33.01171875 53.43359375 C30.32365344 49.96847426 27.64534112 46.49786011 25 43 C24.43313477 42.25234375 23.86626953 41.5046875 23.28222656 40.734375 C0 9.90966401 0 9.90966401 0 0 Z " fill="#E9CCC1" transform="translate(112,269)"/>
<path d="M0 0 C4.00045165 1.63250941 7.84054577 3.48487368 11.69638062 5.43093872 C12.5165567 5.84088074 13.33673279 6.25082275 14.1817627 6.67318726 C16.87816613 8.02208274 19.57169536 9.37661459 22.26522827 10.73123169 C24.13977863 11.67037295 26.01450653 12.60915991 27.8894043 13.54760742 C32.81321051 16.0133207 37.7345948 18.48383031 42.65548706 20.95535278 C47.68149656 23.47860393 52.70978605 25.99730283 57.73788452 28.51638794 C67.59558767 33.45595037 77.45073774 38.40058379 87.30429077 43.34841919 C81.86412212 47.76346351 81.86412212 47.76346351 78.69491577 49.17263794 C78.03161255 49.47427856 77.36830933 49.77591919 76.68490601 50.08670044 C75.98180298 50.39994263 75.27869995 50.71318481 74.55429077 51.03591919 C67.87456439 54.09248557 61.35015344 57.34887541 54.89315796 60.85110474 C49.58747164 63.7153867 44.2018496 66.41079433 38.80357361 69.09498596 C34.42502304 71.27623559 30.06668081 73.49251975 25.72267151 75.74176025 C22.78665528 77.26043482 19.84388532 78.76575265 16.90048218 80.27005005 C15.39896295 81.04127442 13.90032279 81.818126 12.40438843 82.60012817 C10.19873962 83.75138663 7.98343486 84.88174542 5.76522827 86.00857544 C5.10268036 86.36049454 4.44013245 86.71241364 3.75750732 87.07499695 C-0.50705281 89.20932666 -3.1173219 89.70713592 -7.69570923 88.34841919 C-10.17764282 87.38040161 -10.17764282 87.38040161 -12.59414673 86.20388794 C-13.48617798 85.7739856 -14.37820923 85.34408325 -15.29727173 84.90115356 C-16.2125061 84.45062622 -17.12774048 84.00009888 -18.07070923 83.53591919 C-18.97820923 83.09699341 -19.88570923 82.65806763 -20.82070923 82.20584106 C-24.17076011 80.58150083 -27.51879549 78.95738166 -30.82559204 77.24636841 C-35.65789868 74.74883895 -40.5347091 72.81259569 -45.69570923 71.09841919 C-46.57509155 70.80539917 -47.45447388 70.51237915 -48.36050415 70.21047974 C-60.01048397 66.4523261 -71.92949603 63.62898565 -83.82643127 60.77377319 C-87.09569388 59.98812439 -90.35730238 59.18263006 -93.61001587 58.33084106 C-103.50216378 55.75278198 -113.41885831 53.85270228 -123.50820923 52.22341919 C-124.29696442 52.09457336 -125.0857196 51.96572754 -125.89837646 51.83297729 C-144.66006825 48.77512267 -162.65747 47.0074358 -181.69570923 47.34841919 C-182.02570923 46.68841919 -182.35570923 46.02841919 -182.69570923 45.34841919 C-174.60333628 43.48438618 -166.51880104 42.6553193 -158.25820923 41.91091919 C-147.43282501 40.89470049 -136.71326317 39.60370955 -126.00088501 37.73391724 C-123.24392193 37.27286611 -120.48024376 36.86786005 -117.71524048 36.45779419 C-109.7500418 35.23773306 -101.8473969 33.73248868 -93.94570923 32.16091919 C-92.80384659 31.93423553 -92.80384659 31.93423553 -91.63891602 31.70297241 C-78.6665248 29.10879909 -65.93764987 25.96856688 -53.27285767 22.1242981 C-50.91295815 21.41382437 -48.54646195 20.73968473 -46.17227173 20.07888794 C-34.76774187 16.83353229 -24.48408271 11.84282671 -14.34414673 5.76248169 C-13.2710022 5.12777954 -13.2710022 5.12777954 -12.17617798 4.48025513 C-10.80503372 3.66176595 -9.44479517 2.82463137 -8.09805298 1.96658325 C-3.43212292 -0.82957962 -3.43212292 -0.82957962 0 0 Z " fill="#3D348B" transform="translate(282.6957092285156,398.6515808105469)"/>
<path d="M0 0 C-2.22825644 2.22825644 -3.65761628 2.69239369 -6.625 3.625 C-7.44226563 3.88539063 -8.25953125 4.14578125 -9.1015625 4.4140625 C-9.72804688 4.60742188 -10.35453125 4.80078125 -11 5 C-11 4.34 -11 3.68 -11 3 C-9.73581754 2.30034557 -8.46334598 1.61565237 -7.1875 0.9375 C-6.47980469 0.55464844 -5.77210938 0.17179687 -5.04296875 -0.22265625 C-3 -1 -3 -1 0 0 Z " fill="#D4B9BB" transform="translate(439,456)"/>
</svg>
